<?xml version="1.0" encoding="UTF-8"?>
<!DOCTYPE svg PUBLIC "-//W3C//DTD SVG 1.1//EN" "http://www.w3.org/Graphics/SVG/1.1/DTD/svg11.dtd">
<!-- Creator: CorelDRAW 2020 (64-Bit) -->
<svg xmlns="http://www.w3.org/2000/svg" xml:space="preserve" width="165.508mm" height="165.507mm" version="1.1" style="shape-rendering:geometricPrecision; text-rendering:geometricPrecision; image-rendering:optimizeQuality; fill-rule:evenodd; clip-rule:evenodd"
viewBox="0 0 6309.87 6309.87"
 xmlns:xlink="http://www.w3.org/1999/xlink"
 xmlns:xodm="http://www.corel.com/coreldraw/odm/2003">
 <defs>
  <style type="text/css">
   <![CDATA[
    .str0 {stroke:#2B2A29;stroke-width:7.62;stroke-miterlimit:22.9256}
    .fil0 {fill:#2B2A29}
   ]]>
  </style>
 </defs>
 <g id="Capa_x0020_1">
  <metadata id="CorelCorpID_0Corel-Layer"/>
  <path class="fil0 str0" d="M3809.75 72.12c-2219.64,269.58 -3333.52,3251.99 -992.28,4860.47 -1881.22,-2092.88 -377.25,-4457.85 1667.56,-4634.89 103.92,48.46 204.73,102.48 302.11,161.56 -1080.56,-38.14 -3615.58,1977.81 -1431.36,4409.74 -1321.08,-2562.58 771.79,-3921.4 1868.91,-4089.82 68.35,59.61 134.09,122.14 197.07,187.34 -380.55,76.08 -2869.69,1061.19 -1478.95,3874.28 -715.78,-2671.76 1503.66,-3340.37 1812.07,-3466.43 347.69,506.52 551.19,1119.73 551.19,1780.56 0,1740.32 -1410.81,3151.12 -3151.12,3151.12 -1740.32,0 -3151.13,-1410.81 -3151.13,-3151.12 0,-803.47 300.85,-1536.59 795.9,-2093.15 -854.02,1458.17 -292.38,3525.16 1372.58,3789.55 -1360.25,-434.58 -2097.39,-3650.44 403.23,-4794.34 407.15,-75.71 829.06,-70.5 1234.23,15.14z"/>
 </g>
</svg>
